<svg width="45" height="45" viewBox="0 0 45 45" fill="none" xmlns="http://www.w3.org/2000/svg">
<path d="M18.1172 22.5C18.1172 24.8786 20.0453 26.8067 22.4238 26.8067C24.8024 26.8067 26.7305 24.8786 26.7305 22.5C26.7305 20.1215 24.8024 18.1934 22.4238 18.1934C20.0453 18.1934 18.1172 20.1215 18.1172 22.5Z" fill="white"/>
<path d="M12.3521 14.8802C12.5591 14.3192 12.8894 13.8114 13.3186 13.3946C13.7354 12.9655 14.2428 12.6352 14.8041 12.4282C15.2594 12.2514 15.9433 12.0409 17.2029 11.9836C18.5656 11.9214 18.9741 11.9081 22.4238 11.9081C25.8739 11.9081 26.2824 11.9211 27.6447 11.9832C28.9044 12.0409 29.5886 12.2514 30.0435 12.4282C30.6049 12.6352 31.1126 12.9655 31.5291 13.3946C31.9582 13.8114 32.2885 14.3189 32.4959 14.8802C32.6727 15.3354 32.8832 16.0197 32.9405 17.2793C33.0026 18.6416 33.016 19.0502 33.016 22.5002C33.016 25.95 33.0026 26.3585 32.9405 27.7212C32.8832 28.9808 32.6727 29.6647 32.4959 30.12C32.2885 30.6813 31.9586 31.1887 31.5294 31.6055C31.1126 32.0347 30.6052 32.3649 30.0439 32.572C29.5886 32.7491 28.9044 32.9596 27.6447 33.0169C26.2824 33.079 25.8742 33.0921 22.4242 33.0921C18.9738 33.0921 18.5652 33.079 17.2033 33.0169C15.9436 32.9596 15.2594 32.7491 14.8041 32.572C13.6773 32.1373 12.7868 31.2467 12.3521 30.12C12.1753 29.6647 11.9648 28.9808 11.9072 27.7212C11.845 26.3585 11.832 25.95 11.832 22.5002C11.832 19.0502 11.845 18.6416 11.9072 17.2793C11.9645 16.0197 12.175 15.3354 12.3521 14.8802V14.8802ZM22.4238 29.1343C26.0881 29.1343 29.0585 26.1642 29.0585 22.4999C29.0585 18.8356 26.0881 15.8655 22.4238 15.8655C18.7599 15.8655 15.7895 18.8356 15.7895 22.4999C15.7895 26.1642 18.7599 29.1343 22.4238 29.1343ZM15.5272 17.1537C16.3834 17.1537 17.0776 16.4595 17.0776 15.6032C17.0776 14.747 16.3834 14.0528 15.5272 14.0528C14.6709 14.0528 13.9767 14.747 13.9767 15.6032C13.9771 16.4595 14.6709 17.1537 15.5272 17.1537Z" fill="white"/>
<path d="M22.6204 0C34.9364 0 44.9238 9.98747 44.9238 22.3034C44.9238 34.6194 34.9364 44.6069 22.6204 44.6069C10.3044 44.6069 0.316958 34.6194 0.316958 22.3034C0.316958 9.98747 10.3044 0 22.6204 0ZM9.8906 27.5836C9.95253 28.9469 10.1693 29.8777 10.4858 30.6924C11.1512 32.4127 12.5111 33.7727 14.2314 34.438C15.0458 34.7545 15.9769 34.971 17.3399 35.0332C18.7057 35.0955 19.1419 35.1105 22.6201 35.1105C26.0985 35.1105 26.5345 35.0955 27.9005 35.0332C29.2635 34.971 30.1946 34.7545 31.009 34.438C31.8639 34.1164 32.6378 33.6124 33.2776 32.9607C33.929 32.3212 34.433 31.547 34.7546 30.6924C35.0711 29.878 35.2879 28.9469 35.3498 27.5839C35.4128 26.2178 35.4274 25.7815 35.4274 22.3034C35.4274 18.8253 35.4128 18.389 35.3502 17.0233C35.2883 15.66 35.0718 14.7292 34.7553 13.9145C34.4337 13.0599 33.9293 12.2857 33.2776 11.6462C32.6382 10.9945 31.8639 10.4905 31.0094 10.1689C30.1946 9.85236 29.2638 9.63592 27.9005 9.57364C26.5348 9.51136 26.0985 9.49638 22.6204 9.49638C19.1423 9.49638 18.706 9.51136 17.3403 9.57398C15.9769 9.63592 15.0462 9.85236 14.2314 10.1685C13.3769 10.4901 12.6026 10.9945 11.9628 11.6462C11.3114 12.286 10.8071 13.0599 10.4858 13.9145C10.169 14.7292 9.95253 15.66 9.89026 17.0233C9.82798 18.389 9.81334 18.8253 9.81334 22.3034C9.81334 25.7815 9.82798 26.2178 9.8906 27.5836Z" fill="white"/>
</svg>
